# xmcd
#
# Track frame offsets:
#	150
#	21200
#	56245
#	75385
#
# Disc length: 1395 seconds
# Revision: 0
# Processed by: cddbd v1.5.2PL0 Copyright (c) Steve Scherf et al.
# Submitted via: dBpowerAMP V12.0
#
DISCID=28057104
DTITLE=Various Artist - Dinner With Gershwin - I Don't Think That Man Should Sleep Alone
DYEAR=1987
DGENRE=R&B
TTITLE0=Donna Summer - Dinner With Gershwin [Album Version]
TTITLE1=Donna Summer - Dinner With Gershwin [Extended Version]
TTITLE2=Ray Parker Jr. - I Don't Think That Man Should Sleep Alone [Edit]
TTITLE3=Ray Parker Jr. - I Don't Thnik That Man Should Sleep Alone [Extended Version]
EXTD=
EXTT0=
EXTT1=
EXTT2=
EXTT3=
PLAYORDER=
